<?xml version="1.0" standalone="no"?>
<!DOCTYPE svg PUBLIC "-//W3C//DTD SVG 20010904//EN"
 "http://www.w3.org/TR/2001/REC-SVG-20010904/DTD/svg10.dtd">
<svg version="1.0" xmlns="http://www.w3.org/2000/svg"
 width="366.000000pt" height="366.000000pt" viewBox="0 0 366.000000 366.000000"
 preserveAspectRatio="xMidYMid meet">
<metadata>
Created by potrace 1.11, written by Peter Selinger 2001-2013
</metadata>
<g transform="translate(0.000000,366.000000) scale(0.100000,-0.100000)"
fill="#000000" stroke="none">
<path d="M1620 3174 c-510 -43 -588 -64 -657 -182 -27 -46 -28 -52 -34 -252
-5 -159 -15 -261 -43 -455 -46 -312 -144 -900 -191 -1147 -39 -209 -42 -249
-20 -331 38 -145 133 -249 273 -298 159 -56 509 -21 677 69 27 15 73 50 100
78 l50 52 67 -63 c81 -77 179 -127 300 -151 76 -16 101 -17 215 -6 166 15 268
36 374 79 151 60 213 133 214 253 0 62 -5 75 -94 265 -52 110 -125 269 -161
354 l-67 153 97 97 c57 57 116 127 144 174 118 191 152 429 96 673 -24 104
-57 176 -121 270 -135 194 -330 302 -634 349 -95 15 -483 28 -585 19z m570
-289 c275 -46 436 -168 502 -379 33 -103 32 -293 -1 -386 -47 -135 -152 -256
-312 -363 l-77 -50 49 -145 c99 -288 254 -641 309 -699 l20 -22 -30 -16 c-45
-23 -179 -52 -303 -66 -143 -15 -193 -2 -257 67 -53 58 -56 63 -180 427 l-105
307 -102 0 c-98 0 -103 -1 -108 -22 -14 -62 -56 -358 -67 -473 -9 -100 -9
-141 0 -175 11 -41 10 -47 -8 -61 -28 -24 -161 -57 -281 -70 -91 -10 -112 -10
-163 5 -75 22 -111 59 -125 129 -12 57 -14 41 48 387 45 253 103 616 156 980
26 173 38 297 42 422 6 169 7 177 27 182 18 4 100 13 361 40 93 10 513 -4 605
-19z"/>
<path d="M1756 2588 c-4 -19 -85 -553 -103 -682 l-6 -39 109 5 c126 7 192 27
258 82 123 101 185 385 115 523 -44 84 -156 133 -305 133 -58 0 -64 -2 -68
-22z"/>
</g>
</svg>
